<svg viewBox="0 0 340 480" xmlns="http://www.w3.org/2000/svg" font-family="Arial, sans-serif">
  <defs>
    <linearGradient id="cardBg" x1="0" y1="0" x2="1" y2="1">
      <stop offset="0" stop-color="#CD7F32" />
      <stop offset="0.55" stop-color="#5A3A18" />
      <stop offset="1" stop-color="#CD7F32" />
    </linearGradient>
    <radialGradient id="cardSheen" cx="0.3" cy="0.08" r="0.7">
      <stop offset="0" stop-color="#ffffff" stop-opacity="0.35" />
      <stop offset="1" stop-color="#ffffff" stop-opacity="0" />
    </radialGradient>
    <pattern id="cardTexture" width="10" height="10" patternTransform="rotate(45)" patternUnits="userSpaceOnUse">
      <line x1="0" y1="0" x2="0" y2="10" stroke="#2A1A0C" stroke-opacity="0.05" stroke-width="4" />
    </pattern>
    <clipPath id="shieldClip">
      <path d="M 34 6 L 306 6 Q 334 6 334 34 L 334 396 Q 334 414 320 424 L 316 428 L 194 468 Q 170 480 146 468 L 24 428 L 20 424 Q 6 414 6 396 L 6 34 Q 6 6 34 6 Z" />
    </clipPath>
  </defs>

  <path d="M 34 6 L 306 6 Q 334 6 334 34 L 334 396 Q 334 414 320 424 L 316 428 L 194 468 Q 170 480 146 468 L 24 428 L 20 424 Q 6 414 6 396 L 6 34 Q 6 6 34 6 Z" fill="url(#cardBg)" stroke="#2A1A0C" stroke-opacity="0.4" stroke-width="3" />
  <path d="M 34 6 L 306 6 Q 334 6 334 34 L 334 396 Q 334 414 320 424 L 316 428 L 194 468 Q 170 480 146 468 L 24 428 L 20 424 Q 6 414 6 396 L 6 34 Q 6 6 34 6 Z" fill="none" stroke="#2A1A0C" stroke-opacity="0.25" stroke-width="1" transform="translate(170 240) scale(0.965) translate(-170 -240)" />
  <path d="M 34 6 L 306 6 Q 334 6 334 34 L 334 396 Q 334 414 320 424 L 316 428 L 194 468 Q 170 480 146 468 L 24 428 L 20 424 Q 6 414 6 396 L 6 34 Q 6 6 34 6 Z" fill="url(#cardTexture)" />
  <path d="M 34 6 L 306 6 Q 334 6 334 34 L 334 396 Q 334 414 320 424 L 316 428 L 194 468 Q 170 480 146 468 L 24 428 L 20 424 Q 6 414 6 396 L 6 34 Q 6 6 34 6 Z" fill="url(#cardSheen)" />

  <g clip-path="url(#shieldClip)">
    <text x="170" y="270" font-size="240" font-weight="800" fill="#2A1A0C" fill-opacity="0.08" text-anchor="middle" font-family="'Arial Black', Arial, sans-serif">41</text>

    <rect x="158" y="10" width="15" height="15" transform="rotate(45 170 22)" fill="#CD7F32" stroke="#2A1A0C" stroke-opacity="0.5" stroke-width="1" />
    <rect x="161.5" y="13.5" width="8" height="8" transform="rotate(45 170 22)" fill="none" stroke="#2A1A0C" stroke-opacity="0.5" stroke-width="0.75" />

    <text x="26" y="72" font-size="46" font-weight="800" fill="#2A1A0C" font-family="'Arial Black', Arial, sans-serif" data-count-to="41">41</text>
    <text x="26" y="96" font-size="15" font-weight="700" fill="#2A1A0C" opacity="0.9">CDM</text>

    
    <rect x="25" y="109" width="34" height="26" fill="none" stroke="#2A1A0C" stroke-opacity="0.4" stroke-width="1" />
    <svg x="26" y="110" width="32" height="24" viewBox="0 0 640 480" preserveAspectRatio="xMidYMid slice">
  <path fill="#bd3d44" d="M0 0h640v480H0"/>
  <path stroke="#fff" stroke-width="37" d="M0 55.3h640M0 129h640M0 203h640M0 277h640M0 351h640M0 425h640"/>
  <path fill="#192f5d" d="M0 0h364.8v258.5H0"/>
  <marker markerHeight="30" markerWidth="30">
    <path fill="#fff" d="m14 0 9 27L0 10h28L5 27z"/>
  </marker>
  <path fill="none" marker-mid="url(#us-a)" d="m0 0 16 11h61 61 61 61 60L47 37h61 61 60 61L16 63h61 61 61 61 60L47 89h61 61 60 61L16 115h61 61 61 61 60L47 141h61 61 60 61L16 166h61 61 61 61 60L47 192h61 61 60 61L16 218h61 61 61 61 60z"/>
</svg>
    <rect x="24" y="140" width="118" height="19" rx="4" fill="#2A1A0C" fill-opacity="0.16" />
    <text x="30" y="153" font-size="9.5" font-weight="700" fill="#2A1A0C">Acme Corp</text>

    <text x="312" y="34" font-size="12" font-weight="800" fill="#2A1A0C" opacity="0.85" text-anchor="end">BRONZE</text>
    <text x="312" y="48" font-size="8" font-weight="700" fill="#2A1A0C" opacity="0.55" text-anchor="end">FULL EXPORT</text>

    <circle cx="170" cy="172" r="66" fill="none" stroke="#2A1A0C" stroke-opacity="0.25" stroke-width="1" />
    <circle cx="170" cy="172" r="64" fill="#ffffff" fill-opacity="0.22" stroke="#2A1A0C" stroke-width="2" stroke-opacity="0.45" />
    <text x="170" y="187" font-size="46" font-weight="800" fill="#2A1A0C" text-anchor="middle">JS</text>

    <rect x="6" y="266" width="328" height="34" fill="#2A1A0C" fill-opacity="0.14" />
    <line x1="6" y1="266" x2="334" y2="266" stroke="#2A1A0C" stroke-opacity="0.3" stroke-width="1" />
    <line x1="6" y1="300" x2="334" y2="300" stroke="#2A1A0C" stroke-opacity="0.3" stroke-width="1" />
    <text x="170" y="289" font-size="24" font-weight="800" fill="#2A1A0C" text-anchor="middle" letter-spacing="0.5">JANE SCOUT</text>

    <text x="170" y="316" font-size="11" fill="#2A1A0C" text-anchor="middle" opacity="0.8">Senior Software Engineer @ Acme</text>
    <text x="170" y="332" font-size="12" font-weight="700" fill="#2A1A0C" text-anchor="middle" opacity="0.9">Veteran</text>

    <line x1="170" y1="344" x2="170" y2="428" stroke="#2A1A0C" stroke-opacity="0.25" stroke-width="1" />
    <line x1="30" y1="375" x2="310" y2="375" stroke="#2A1A0C" stroke-opacity="0.18" stroke-width="1" />
    <line x1="30" y1="405" x2="310" y2="405" stroke="#2A1A0C" stroke-opacity="0.18" stroke-width="1" />

    
    <text x="42" y="360" font-size="19" font-weight="800" fill="#2A1A0C" font-family="'Arial Black', Arial, sans-serif" data-count-to="51">51</text>
    <text x="74" y="360" font-size="13" font-weight="700" fill="#2A1A0C" font-family="Arial, sans-serif" opacity="0.85">PAC</text>

    <text x="42" y="390" font-size="19" font-weight="800" fill="#2A1A0C" font-family="'Arial Black', Arial, sans-serif" data-count-to="45">45</text>
    <text x="74" y="390" font-size="13" font-weight="700" fill="#2A1A0C" font-family="Arial, sans-serif" opacity="0.85">SHO</text>

    <text x="42" y="420" font-size="19" font-weight="800" fill="#2A1A0C" font-family="'Arial Black', Arial, sans-serif" data-count-to="17">17</text>
    <text x="74" y="420" font-size="13" font-weight="700" fill="#2A1A0C" font-family="Arial, sans-serif" opacity="0.85">PAS</text>
    
    <text x="192" y="360" font-size="19" font-weight="800" fill="#2A1A0C" font-family="'Arial Black', Arial, sans-serif" data-count-to="41">41</text>
    <text x="224" y="360" font-size="13" font-weight="700" fill="#2A1A0C" font-family="Arial, sans-serif" opacity="0.85">DRI</text>

    <text x="192" y="390" font-size="19" font-weight="800" fill="#2A1A0C" font-family="'Arial Black', Arial, sans-serif" data-count-to="18">18</text>
    <text x="224" y="390" font-size="13" font-weight="700" fill="#2A1A0C" font-family="Arial, sans-serif" opacity="0.85">DEF</text>

    <text x="192" y="420" font-size="19" font-weight="800" fill="#2A1A0C" font-family="'Arial Black', Arial, sans-serif" data-count-to="74">74</text>
    <text x="224" y="420" font-size="13" font-weight="700" fill="#2A1A0C" font-family="Arial, sans-serif" opacity="0.85">PHY</text>
  </g>
</svg>